<svg width="1280" height="832" viewBox="0 0 1280 832" fill="none" xmlns="http://www.w3.org/2000/svg">
<mask id="mask0_7_3153" style="mask-type:alpha" maskUnits="userSpaceOnUse" x="0" y="0" width="1280" height="832">
<rect width="1280" height="832" fill="url(#paint0_linear_7_3153)" style=""/>
</mask>
<g mask="url(#mask0_7_3153)">
<path d="M1280 -224H6.10352e-05V1056H1280V-224Z" stroke="#F3F3F3" style="stroke:#F3F3F3;stroke:color(display-p3 0.9516 0.9516 0.9516);stroke-opacity:1;"/>
<path d="M1230.82 -174.818H49.1816V1006.82H1230.82V-174.818Z" stroke="#F3F3F3" style="stroke:#F3F3F3;stroke:color(display-p3 0.9516 0.9516 0.9516);stroke-opacity:1;"/>
<path d="M1181.64 -125.637H98.3631V957.637H1181.64V-125.637Z" stroke="#F3F3F3" style="stroke:#F3F3F3;stroke:color(display-p3 0.9516 0.9516 0.9516);stroke-opacity:1;"/>
<path d="M1132.46 -76.4554H147.545V908.455H1132.46V-76.4554Z" stroke="#F3F3F3" style="stroke:#F3F3F3;stroke:color(display-p3 0.9516 0.9516 0.9516);stroke-opacity:1;"/>
<path d="M1083.27 -27.2738H196.726V859.274H1083.27V-27.2738Z" stroke="#F3F3F3" style="stroke:#F3F3F3;stroke:color(display-p3 0.9516 0.9516 0.9516);stroke-opacity:1;"/>
<path d="M1034.09 21.9077H245.908V810.092H1034.09V21.9077Z" stroke="#F3F3F3" style="stroke:#F3F3F3;stroke:color(display-p3 0.9516 0.9516 0.9516);stroke-opacity:1;"/>
<path d="M984.911 71.0892H295.089V760.911H984.911V71.0892Z" stroke="#F3F3F3" style="stroke:#F3F3F3;stroke:color(display-p3 0.9516 0.9516 0.9516);stroke-opacity:1;"/>
<path d="M935.729 120.271H344.271V711.729H935.729V120.271Z" stroke="#F3F3F3" style="stroke:#F3F3F3;stroke:color(display-p3 0.9516 0.9516 0.9516);stroke-opacity:1;"/>
<path d="M886.548 169.452H393.452V662.548H886.548V169.452Z" stroke="#F3F3F3" style="stroke:#F3F3F3;stroke:color(display-p3 0.9516 0.9516 0.9516);stroke-opacity:1;"/>
<path d="M837.366 218.634H442.634V613.366H837.366V218.634Z" stroke="#F3F3F3" style="stroke:#F3F3F3;stroke:color(display-p3 0.9516 0.9516 0.9516);stroke-opacity:1;"/>
<path d="M788.185 267.815H491.815V564.185H788.185V267.815Z" stroke="#F3F3F3" style="stroke:#F3F3F3;stroke:color(display-p3 0.9516 0.9516 0.9516);stroke-opacity:1;"/>
<path d="M739.003 316.997H540.997V515.003H739.003V316.997Z" stroke="#F3F3F3" style="stroke:#F3F3F3;stroke:color(display-p3 0.9516 0.9516 0.9516);stroke-opacity:1;"/>
<path d="M689.822 366.178H590.178V465.822H689.822V366.178Z" stroke="#F3F3F3" style="stroke:#F3F3F3;stroke:color(display-p3 0.9516 0.9516 0.9516);stroke-opacity:1;"/>
<path d="M640.64 415.36H639.36V416.64H640.64V415.36Z" stroke="#F3F3F3" style="stroke:#F3F3F3;stroke:color(display-p3 0.9516 0.9516 0.9516);stroke-opacity:1;"/>
<path d="M639.36 416.64L0.00015297 1056" stroke="#F3F3F3" style="stroke:#F3F3F3;stroke:color(display-p3 0.9516 0.9516 0.9516);stroke-opacity:1;"/>
<path d="M639.416 416.64L81.9227 1056" stroke="#F3F3F3" style="stroke:#F3F3F3;stroke:color(display-p3 0.9516 0.9516 0.9516);stroke-opacity:1;"/>
<path d="M639.471 416.64L154.629 1056" stroke="#F3F3F3" style="stroke:#F3F3F3;stroke:color(display-p3 0.9516 0.9516 0.9516);stroke-opacity:1;"/>
<path d="M639.527 416.64L220.171 1056" stroke="#F3F3F3" style="stroke:#F3F3F3;stroke:color(display-p3 0.9516 0.9516 0.9516);stroke-opacity:1;"/>
<path d="M639.583 416.64L280.088 1056" stroke="#F3F3F3" style="stroke:#F3F3F3;stroke:color(display-p3 0.9516 0.9516 0.9516);stroke-opacity:1;"/>
<path d="M639.638 416.64L335.572 1056" stroke="#F3F3F3" style="stroke:#F3F3F3;stroke:color(display-p3 0.9516 0.9516 0.9516);stroke-opacity:1;"/>
<path d="M639.694 416.64L387.563 1056" stroke="#F3F3F3" style="stroke:#F3F3F3;stroke:color(display-p3 0.9516 0.9516 0.9516);stroke-opacity:1;"/>
<path d="M639.75 416.64L436.826 1056" stroke="#F3F3F3" style="stroke:#F3F3F3;stroke:color(display-p3 0.9516 0.9516 0.9516);stroke-opacity:1;"/>
<path d="M639.805 416.64L483.997 1056" stroke="#F3F3F3" style="stroke:#F3F3F3;stroke:color(display-p3 0.9516 0.9516 0.9516);stroke-opacity:1;"/>
<path d="M639.861 416.64L529.624 1056" stroke="#F3F3F3" style="stroke:#F3F3F3;stroke:color(display-p3 0.9516 0.9516 0.9516);stroke-opacity:1;"/>
<path d="M639.917 416.64L574.188 1056" stroke="#F3F3F3" style="stroke:#F3F3F3;stroke:color(display-p3 0.9516 0.9516 0.9516);stroke-opacity:1;"/>
<path d="M639.972 416.64L618.131 1056" stroke="#F3F3F3" style="stroke:#F3F3F3;stroke:color(display-p3 0.9516 0.9516 0.9516);stroke-opacity:1;"/>
<path d="M640.028 416.64L661.869 1056" stroke="#F3F3F3" style="stroke:#F3F3F3;stroke:color(display-p3 0.9516 0.9516 0.9516);stroke-opacity:1;"/>
<path d="M640.083 416.64L705.812 1056" stroke="#F3F3F3" style="stroke:#F3F3F3;stroke:color(display-p3 0.9516 0.9516 0.9516);stroke-opacity:1;"/>
<path d="M640.139 416.64L750.376 1056" stroke="#F3F3F3" style="stroke:#F3F3F3;stroke:color(display-p3 0.9516 0.9516 0.9516);stroke-opacity:1;"/>
<path d="M640.195 416.64L796.003 1056" stroke="#F3F3F3" style="stroke:#F3F3F3;stroke:color(display-p3 0.9516 0.9516 0.9516);stroke-opacity:1;"/>
<path d="M640.25 416.64L843.174 1056" stroke="#F3F3F3" style="stroke:#F3F3F3;stroke:color(display-p3 0.9516 0.9516 0.9516);stroke-opacity:1;"/>
<path d="M640.306 416.64L892.437 1056" stroke="#F3F3F3" style="stroke:#F3F3F3;stroke:color(display-p3 0.9516 0.9516 0.9516);stroke-opacity:1;"/>
<path d="M640.362 416.64L944.428 1056" stroke="#F3F3F3" style="stroke:#F3F3F3;stroke:color(display-p3 0.9516 0.9516 0.9516);stroke-opacity:1;"/>
<path d="M640.417 416.64L999.912 1056" stroke="#F3F3F3" style="stroke:#F3F3F3;stroke:color(display-p3 0.9516 0.9516 0.9516);stroke-opacity:1;"/>
<path d="M640.473 416.64L1059.83 1056" stroke="#F3F3F3" style="stroke:#F3F3F3;stroke:color(display-p3 0.9516 0.9516 0.9516);stroke-opacity:1;"/>
<path d="M640.529 416.64L1125.37 1056" stroke="#F3F3F3" style="stroke:#F3F3F3;stroke:color(display-p3 0.9516 0.9516 0.9516);stroke-opacity:1;"/>
<path d="M640.584 416.64L1198.08 1056" stroke="#F3F3F3" style="stroke:#F3F3F3;stroke:color(display-p3 0.9516 0.9516 0.9516);stroke-opacity:1;"/>
<path d="M640.64 416.64L1280 1056" stroke="#F3F3F3" style="stroke:#F3F3F3;stroke:color(display-p3 0.9516 0.9516 0.9516);stroke-opacity:1;"/>
<path d="M639.36 415.36L3.09002e-05 -224" stroke="#F3F3F3" style="stroke:#F3F3F3;stroke:color(display-p3 0.9516 0.9516 0.9516);stroke-opacity:1;"/>
<path d="M639.36 415.416L9.11681e-05 -142.077" stroke="#F3F3F3" style="stroke:#F3F3F3;stroke:color(display-p3 0.9516 0.9516 0.9516);stroke-opacity:1;"/>
<path d="M639.36 415.471L6.38854e-05 -69.3706" stroke="#F3F3F3" style="stroke:#F3F3F3;stroke:color(display-p3 0.9516 0.9516 0.9516);stroke-opacity:1;"/>
<path d="M639.36 415.527L5.6375e-05 -3.8293" stroke="#F3F3F3" style="stroke:#F3F3F3;stroke:color(display-p3 0.9516 0.9516 0.9516);stroke-opacity:1;"/>
<path d="M639.36 415.583L3.19708e-05 56.0885" stroke="#F3F3F3" style="stroke:#F3F3F3;stroke:color(display-p3 0.9516 0.9516 0.9516);stroke-opacity:1;"/>
<path d="M639.36 415.638L7.49534e-05 111.572" stroke="#F3F3F3" style="stroke:#F3F3F3;stroke:color(display-p3 0.9516 0.9516 0.9516);stroke-opacity:1;"/>
<path d="M639.36 415.694L5.06537e-05 163.563" stroke="#F3F3F3" style="stroke:#F3F3F3;stroke:color(display-p3 0.9516 0.9516 0.9516);stroke-opacity:1;"/>
<path d="M639.36 415.75L6.63471e-05 212.826" stroke="#F3F3F3" style="stroke:#F3F3F3;stroke:color(display-p3 0.9516 0.9516 0.9516);stroke-opacity:1;"/>
<path d="M639.36 415.805L6.64838e-05 259.997" stroke="#F3F3F3" style="stroke:#F3F3F3;stroke:color(display-p3 0.9516 0.9516 0.9516);stroke-opacity:1;"/>
<path d="M639.36 415.861L5.199e-05 305.624" stroke="#F3F3F3" style="stroke:#F3F3F3;stroke:color(display-p3 0.9516 0.9516 0.9516);stroke-opacity:1;"/>
<path d="M639.36 415.917L5.29133e-05 350.188" stroke="#F3F3F3" style="stroke:#F3F3F3;stroke:color(display-p3 0.9516 0.9516 0.9516);stroke-opacity:1;"/>
<path d="M639.36 415.972L5.02996e-05 394.131" stroke="#F3F3F3" style="stroke:#F3F3F3;stroke:color(display-p3 0.9516 0.9516 0.9516);stroke-opacity:1;"/>
<path d="M639.36 416.028L5.02996e-05 437.869" stroke="#F3F3F3" style="stroke:#F3F3F3;stroke:color(display-p3 0.9516 0.9516 0.9516);stroke-opacity:1;"/>
<path d="M639.36 416.083L5.29133e-05 481.812" stroke="#F3F3F3" style="stroke:#F3F3F3;stroke:color(display-p3 0.9516 0.9516 0.9516);stroke-opacity:1;"/>
<path d="M639.36 416.139L5.199e-05 526.376" stroke="#F3F3F3" style="stroke:#F3F3F3;stroke:color(display-p3 0.9516 0.9516 0.9516);stroke-opacity:1;"/>
<path d="M639.36 416.195L6.64838e-05 572.003" stroke="#F3F3F3" style="stroke:#F3F3F3;stroke:color(display-p3 0.9516 0.9516 0.9516);stroke-opacity:1;"/>
<path d="M639.36 416.25L6.63471e-05 619.174" stroke="#F3F3F3" style="stroke:#F3F3F3;stroke:color(display-p3 0.9516 0.9516 0.9516);stroke-opacity:1;"/>
<path d="M639.36 416.306L5.06537e-05 668.437" stroke="#F3F3F3" style="stroke:#F3F3F3;stroke:color(display-p3 0.9516 0.9516 0.9516);stroke-opacity:1;"/>
<path d="M639.36 416.362L7.49534e-05 720.428" stroke="#F3F3F3" style="stroke:#F3F3F3;stroke:color(display-p3 0.9516 0.9516 0.9516);stroke-opacity:1;"/>
<path d="M639.36 416.417L3.19708e-05 775.912" stroke="#F3F3F3" style="stroke:#F3F3F3;stroke:color(display-p3 0.9516 0.9516 0.9516);stroke-opacity:1;"/>
<path d="M639.36 416.473L5.6375e-05 835.829" stroke="#F3F3F3" style="stroke:#F3F3F3;stroke:color(display-p3 0.9516 0.9516 0.9516);stroke-opacity:1;"/>
<path d="M639.36 416.529L6.38854e-05 901.371" stroke="#F3F3F3" style="stroke:#F3F3F3;stroke:color(display-p3 0.9516 0.9516 0.9516);stroke-opacity:1;"/>
<path d="M639.36 416.584L9.11681e-05 974.077" stroke="#F3F3F3" style="stroke:#F3F3F3;stroke:color(display-p3 0.9516 0.9516 0.9516);stroke-opacity:1;"/>
<path d="M639.36 416.64L3.09002e-05 1056" stroke="#F3F3F3" style="stroke:#F3F3F3;stroke:color(display-p3 0.9516 0.9516 0.9516);stroke-opacity:1;"/>
<path d="M640.64 415.36L1280 -224" stroke="#F3F3F3" style="stroke:#F3F3F3;stroke:color(display-p3 0.9516 0.9516 0.9516);stroke-opacity:1;"/>
<path d="M640.584 415.36L1198.08 -224" stroke="#F3F3F3" style="stroke:#F3F3F3;stroke:color(display-p3 0.9516 0.9516 0.9516);stroke-opacity:1;"/>
<path d="M640.529 415.36L1125.37 -224" stroke="#F3F3F3" style="stroke:#F3F3F3;stroke:color(display-p3 0.9516 0.9516 0.9516);stroke-opacity:1;"/>
<path d="M640.473 415.36L1059.83 -224" stroke="#F3F3F3" style="stroke:#F3F3F3;stroke:color(display-p3 0.9516 0.9516 0.9516);stroke-opacity:1;"/>
<path d="M640.417 415.36L999.912 -224" stroke="#F3F3F3" style="stroke:#F3F3F3;stroke:color(display-p3 0.9516 0.9516 0.9516);stroke-opacity:1;"/>
<path d="M640.362 415.36L944.428 -224" stroke="#F3F3F3" style="stroke:#F3F3F3;stroke:color(display-p3 0.9516 0.9516 0.9516);stroke-opacity:1;"/>
<path d="M640.306 415.36L892.437 -224" stroke="#F3F3F3" style="stroke:#F3F3F3;stroke:color(display-p3 0.9516 0.9516 0.9516);stroke-opacity:1;"/>
<path d="M640.25 415.36L843.174 -224" stroke="#F3F3F3" style="stroke:#F3F3F3;stroke:color(display-p3 0.9516 0.9516 0.9516);stroke-opacity:1;"/>
<path d="M640.195 415.36L796.003 -224" stroke="#F3F3F3" style="stroke:#F3F3F3;stroke:color(display-p3 0.9516 0.9516 0.9516);stroke-opacity:1;"/>
<path d="M640.139 415.36L750.376 -224" stroke="#F3F3F3" style="stroke:#F3F3F3;stroke:color(display-p3 0.9516 0.9516 0.9516);stroke-opacity:1;"/>
<path d="M640.083 415.36L705.812 -224" stroke="#F3F3F3" style="stroke:#F3F3F3;stroke:color(display-p3 0.9516 0.9516 0.9516);stroke-opacity:1;"/>
<path d="M640.028 415.36L661.869 -224" stroke="#F3F3F3" style="stroke:#F3F3F3;stroke:color(display-p3 0.9516 0.9516 0.9516);stroke-opacity:1;"/>
<path d="M639.972 415.36L618.131 -224" stroke="#F3F3F3" style="stroke:#F3F3F3;stroke:color(display-p3 0.9516 0.9516 0.9516);stroke-opacity:1;"/>
<path d="M639.917 415.36L574.188 -224" stroke="#F3F3F3" style="stroke:#F3F3F3;stroke:color(display-p3 0.9516 0.9516 0.9516);stroke-opacity:1;"/>
<path d="M639.861 415.36L529.624 -224" stroke="#F3F3F3" style="stroke:#F3F3F3;stroke:color(display-p3 0.9516 0.9516 0.9516);stroke-opacity:1;"/>
<path d="M639.805 415.36L483.997 -224" stroke="#F3F3F3" style="stroke:#F3F3F3;stroke:color(display-p3 0.9516 0.9516 0.9516);stroke-opacity:1;"/>
<path d="M639.75 415.36L436.826 -224" stroke="#F3F3F3" style="stroke:#F3F3F3;stroke:color(display-p3 0.9516 0.9516 0.9516);stroke-opacity:1;"/>
<path d="M639.694 415.36L387.563 -224" stroke="#F3F3F3" style="stroke:#F3F3F3;stroke:color(display-p3 0.9516 0.9516 0.9516);stroke-opacity:1;"/>
<path d="M639.638 415.36L335.572 -224" stroke="#F3F3F3" style="stroke:#F3F3F3;stroke:color(display-p3 0.9516 0.9516 0.9516);stroke-opacity:1;"/>
<path d="M639.583 415.36L280.088 -224" stroke="#F3F3F3" style="stroke:#F3F3F3;stroke:color(display-p3 0.9516 0.9516 0.9516);stroke-opacity:1;"/>
<path d="M639.527 415.36L220.171 -224" stroke="#F3F3F3" style="stroke:#F3F3F3;stroke:color(display-p3 0.9516 0.9516 0.9516);stroke-opacity:1;"/>
<path d="M639.471 415.36L154.629 -224" stroke="#F3F3F3" style="stroke:#F3F3F3;stroke:color(display-p3 0.9516 0.9516 0.9516);stroke-opacity:1;"/>
<path d="M639.416 415.36L81.9227 -224" stroke="#F3F3F3" style="stroke:#F3F3F3;stroke:color(display-p3 0.9516 0.9516 0.9516);stroke-opacity:1;"/>
<path d="M639.36 415.36L3.09002e-05 -224" stroke="#F3F3F3" style="stroke:#F3F3F3;stroke:color(display-p3 0.9516 0.9516 0.9516);stroke-opacity:1;"/>
<path d="M640.64 416.64L1280 1056" stroke="#F3F3F3" style="stroke:#F3F3F3;stroke:color(display-p3 0.9516 0.9516 0.9516);stroke-opacity:1;"/>
<path d="M640.64 416.584L1280 974.077" stroke="#F3F3F3" style="stroke:#F3F3F3;stroke:color(display-p3 0.9516 0.9516 0.9516);stroke-opacity:1;"/>
<path d="M640.64 416.529L1280 901.371" stroke="#F3F3F3" style="stroke:#F3F3F3;stroke:color(display-p3 0.9516 0.9516 0.9516);stroke-opacity:1;"/>
<path d="M640.64 416.473L1280 835.829" stroke="#F3F3F3" style="stroke:#F3F3F3;stroke:color(display-p3 0.9516 0.9516 0.9516);stroke-opacity:1;"/>
<path d="M640.64 416.417L1280 775.912" stroke="#F3F3F3" style="stroke:#F3F3F3;stroke:color(display-p3 0.9516 0.9516 0.9516);stroke-opacity:1;"/>
<path d="M640.64 416.362L1280 720.428" stroke="#F3F3F3" style="stroke:#F3F3F3;stroke:color(display-p3 0.9516 0.9516 0.9516);stroke-opacity:1;"/>
<path d="M640.64 416.306L1280 668.437" stroke="#F3F3F3" style="stroke:#F3F3F3;stroke:color(display-p3 0.9516 0.9516 0.9516);stroke-opacity:1;"/>
<path d="M640.64 416.25L1280 619.174" stroke="#F3F3F3" style="stroke:#F3F3F3;stroke:color(display-p3 0.9516 0.9516 0.9516);stroke-opacity:1;"/>
<path d="M640.64 416.195L1280 572.003" stroke="#F3F3F3" style="stroke:#F3F3F3;stroke:color(display-p3 0.9516 0.9516 0.9516);stroke-opacity:1;"/>
<path d="M640.64 416.139L1280 526.376" stroke="#F3F3F3" style="stroke:#F3F3F3;stroke:color(display-p3 0.9516 0.9516 0.9516);stroke-opacity:1;"/>
<path d="M640.64 416.083L1280 481.812" stroke="#F3F3F3" style="stroke:#F3F3F3;stroke:color(display-p3 0.9516 0.9516 0.9516);stroke-opacity:1;"/>
<path d="M640.64 416.028L1280 437.869" stroke="#F3F3F3" style="stroke:#F3F3F3;stroke:color(display-p3 0.9516 0.9516 0.9516);stroke-opacity:1;"/>
<path d="M640.64 415.972L1280 394.131" stroke="#F3F3F3" style="stroke:#F3F3F3;stroke:color(display-p3 0.9516 0.9516 0.9516);stroke-opacity:1;"/>
<path d="M640.64 415.917L1280 350.188" stroke="#F3F3F3" style="stroke:#F3F3F3;stroke:color(display-p3 0.9516 0.9516 0.9516);stroke-opacity:1;"/>
<path d="M640.64 415.861L1280 305.624" stroke="#F3F3F3" style="stroke:#F3F3F3;stroke:color(display-p3 0.9516 0.9516 0.9516);stroke-opacity:1;"/>
<path d="M640.64 415.805L1280 259.997" stroke="#F3F3F3" style="stroke:#F3F3F3;stroke:color(display-p3 0.9516 0.9516 0.9516);stroke-opacity:1;"/>
<path d="M640.64 415.75L1280 212.826" stroke="#F3F3F3" style="stroke:#F3F3F3;stroke:color(display-p3 0.9516 0.9516 0.9516);stroke-opacity:1;"/>
<path d="M640.64 415.694L1280 163.563" stroke="#F3F3F3" style="stroke:#F3F3F3;stroke:color(display-p3 0.9516 0.9516 0.9516);stroke-opacity:1;"/>
<path d="M640.64 415.638L1280 111.572" stroke="#F3F3F3" style="stroke:#F3F3F3;stroke:color(display-p3 0.9516 0.9516 0.9516);stroke-opacity:1;"/>
<path d="M640.64 415.583L1280 56.0884" stroke="#F3F3F3" style="stroke:#F3F3F3;stroke:color(display-p3 0.9516 0.9516 0.9516);stroke-opacity:1;"/>
<path d="M640.64 415.527L1280 -3.8293" stroke="#F3F3F3" style="stroke:#F3F3F3;stroke:color(display-p3 0.9516 0.9516 0.9516);stroke-opacity:1;"/>
<path d="M640.64 415.471L1280 -69.3706" stroke="#F3F3F3" style="stroke:#F3F3F3;stroke:color(display-p3 0.9516 0.9516 0.9516);stroke-opacity:1;"/>
<path d="M640.64 415.416L1280 -142.077" stroke="#F3F3F3" style="stroke:#F3F3F3;stroke:color(display-p3 0.9516 0.9516 0.9516);stroke-opacity:1;"/>
<path d="M640.64 415.36L1280 -224" stroke="#F3F3F3" style="stroke:#F3F3F3;stroke:color(display-p3 0.9516 0.9516 0.9516);stroke-opacity:1;"/>
<rect x="603" y="379" width="74" height="74" fill="url(#paint1_radial_7_3153)" style=""/>
</g>
<defs>
<linearGradient id="paint0_linear_7_3153" x1="640" y1="0" x2="640" y2="832" gradientUnits="userSpaceOnUse">
<stop stop-color="white" style="stop-color:white;stop-opacity:1;"/>
<stop offset="1" stop-color="white" stop-opacity="0.3" style="stop-color:white;stop-opacity:0.3;"/>
</linearGradient>
<radialGradient id="paint1_radial_7_3153" cx="0" cy="0" r="1" gradientUnits="userSpaceOnUse" gradientTransform="translate(640 416) rotate(90) scale(37)">
<stop stop-color="white" style="stop-color:white;stop-opacity:1;"/>
<stop offset="1" stop-color="white" stop-opacity="0" style="stop-color:none;stop-opacity:0;"/>
</radialGradient>
</defs>
</svg>
