<svg width="28" height="28" viewBox="0 0 28 28" fill="none" xmlns="http://www.w3.org/2000/svg">
<g id="Logos">
<path id="Vector" d="M22.4793 8.86668L7.58566 23.7627C7.26497 24.083 6.83025 24.2629 6.377 24.2629C5.92374 24.2629 5.48902 24.083 5.16833 23.7627L2.954 21.5507C2.79504 21.3918 2.66895 21.2032 2.58292 20.9957C2.49689 20.7881 2.45261 20.5656 2.45261 20.3408C2.45261 20.1161 2.49689 19.8936 2.58292 19.686C2.66895 19.4785 2.79504 19.2899 2.954 19.131L17.85 4.23735C18.0088 4.0784 18.1974 3.9523 18.405 3.86627C18.6126 3.78024 18.8351 3.73596 19.0598 3.73596C19.2845 3.73596 19.507 3.78024 19.7146 3.86627C19.9222 3.9523 20.1108 4.0784 20.2697 4.23735L22.4793 6.44935C22.6383 6.60819 22.7644 6.79679 22.8504 7.00438C22.9364 7.21197 22.9807 7.43447 22.9807 7.65919C22.9807 7.88389 22.9364 8.1064 22.8504 8.31399C22.7644 8.52158 22.6383 8.70785 22.4793 8.86668ZM21.2707 7.65802L19.0587 5.44602L15.638 8.86902L17.85 11.081L21.2707 7.65802Z" fill="black" style="fill:black;fill-opacity:1;"/>
<path id="Star 1" d="M7.67741 3.61292L8.63543 6.042L11.0645 7.00001L8.63543 7.95803L7.67741 10.3871L6.7194 7.95803L4.29031 7.00001L6.7194 6.042L7.67741 3.61292Z" fill="#38A0FF" style="fill:#38A0FF;fill:color(display-p3 0.2196 0.6275 1.0000);fill-opacity:1;"/>
<path id="Polygon 1" d="M16.9355 19.1935L19.0866 20.4355V22.9193L16.9355 24.1613L14.7844 22.9193V20.4355L16.9355 19.1935Z" fill="#F093FF" style="fill:#F093FF;fill:color(display-p3 0.9412 0.5765 1.0000);fill-opacity:1;"/>
<path id="Polygon 2" d="M22.4678 13.0967L25.1077 17.6693H19.8278L22.4678 13.0967Z" fill="#FF9D0B" style="fill:#FF9D0B;fill:color(display-p3 1.0000 0.6157 0.0431);fill-opacity:1;"/>
</g>
</svg>
