<svg width="738" height="458" viewBox="0 0 738 458" fill="none" xmlns="http://www.w3.org/2000/svg">
<g filter="url(#filter0_f_7_3271)">
<path d="M84.5 84L360 169.5L654 84L380.809 240.537L362.974 305.5L654 364.5V374H84.5V364.5L357.214 305.5L340.5 240.537L84.5 84Z" fill="white" fill-opacity="0.08" style="fill:white;fill-opacity:0.08;"/>
<path d="M84.5 84L360 169.5L654 84L380.809 240.537L362.974 305.5L654 364.5V374H84.5V364.5L357.214 305.5L340.5 240.537L84.5 84Z" fill="url(#paint0_radial_7_3271)" style=""/>
<path d="M84.5 84L360 169.5L654 84L380.809 240.537L362.974 305.5L654 364.5V374H84.5V364.5L357.214 305.5L340.5 240.537L84.5 84Z" fill="url(#paint1_radial_7_3271)" style=""/>
<path d="M84.5 84L360 169.5L654 84L380.809 240.537L362.974 305.5L654 364.5V374H84.5V364.5L357.214 305.5L340.5 240.537L84.5 84Z" fill="url(#paint2_radial_7_3271)" style=""/>
</g>
<defs>
<filter id="filter0_f_7_3271" x="0.5" y="0" width="737.5" height="458" filterUnits="userSpaceOnUse" color-interpolation-filters="sRGB">
<feFlood flood-opacity="0" result="BackgroundImageFix"/>
<feBlend mode="normal" in="SourceGraphic" in2="BackgroundImageFix" result="shape"/>
<feGaussianBlur stdDeviation="42" result="effect1_foregroundBlur_7_3271"/>
</filter>
<radialGradient id="paint0_radial_7_3271" cx="0" cy="0" r="1" gradientUnits="userSpaceOnUse" gradientTransform="translate(256.5 -56) rotate(-108.123) scale(551.351 551.351)">
<stop stop-color="#38A0FF" style="stop-color:#38A0FF;stop-color:color(display-p3 0.2196 0.6275 1.0000);stop-opacity:1;"/>
<stop offset="1" stop-color="white" stop-opacity="0" style="stop-color:none;stop-opacity:0;"/>
</radialGradient>
<radialGradient id="paint1_radial_7_3271" cx="0" cy="0" r="1" gradientUnits="userSpaceOnUse" gradientTransform="translate(384.5 536.5) rotate(86.2161) scale(378.826 378.826)">
<stop stop-color="#F093FF" style="stop-color:#F093FF;stop-color:color(display-p3 0.9412 0.5765 1.0000);stop-opacity:1;"/>
<stop offset="1" stop-color="white" stop-opacity="0" style="stop-color:none;stop-opacity:0;"/>
</radialGradient>
<radialGradient id="paint2_radial_7_3271" cx="0" cy="0" r="1" gradientUnits="userSpaceOnUse" gradientTransform="translate(565 -200) rotate(-58.1525) scale(711.632 711.632)">
<stop stop-color="#FF9D0B" style="stop-color:#FF9D0B;stop-color:color(display-p3 1.0000 0.6157 0.0431);stop-opacity:1;"/>
<stop offset="1" stop-color="white" stop-opacity="0" style="stop-color:none;stop-opacity:0;"/>
</radialGradient>
</defs>
</svg>
